Coordinates
version=1
nRows=13
nColumns=36
inDegrees=yes

Units are S.I. units (second, meters, Newtons, ...)
If the header above contains a line with 'inDegrees', this indicates whether rotational values are in degrees (yes) or radians (no).

endheader
time	pelvis_tilt	pelvis_list	pelvis_rotation	pelvis_tx	pelvis_ty	pelvis_tz	hip_flexion_r	hip_adduction_r	hip_rotation_r	knee_angle_r	knee_angle_r_beta	ankle_angle_r	subtalar_angle_r	mtp_angle_r	hip_flexion_l	hip_adduction_l	hip_rotation_l	knee_angle_l	knee_angle_l_beta	ankle_angle_l	subtalar_angle_l	mtp_angle_l	lumbar_extension	lumbar_bending	lumbar_rotation	arm_flex_r	arm_add_r	arm_rot_r	elbow_flex_r	pro_sup_r	arm_flex_l	arm_add_l	arm_rot_l	elbow_flex_l	pro_sup_l
      3.47500000	     -2.57239993	      8.23124042	     -7.10315617	     -3.34320671	      1.17237119	      0.13026960	    -16.09427843	     -9.64063105	     -2.07834417	     12.97645881	      0.22648193	     13.57190609	     -0.52801932	     -7.49999987	     28.10170899	      8.49505642	     -6.78604172	     16.94520845	      0.29574968	     -8.69649642	    -16.62079767	     -7.49999987	     -3.93322646	    -10.23752371	      5.96361010	      2.23715048	     -6.95503596	      2.47566471	     43.39912765	     80.91834464	     -4.41171446	    -10.39402631	     -3.28408970	     23.98465259	     78.07023824
      3.48333330	     -2.44978952	      8.57876925	     -7.20616458	     -3.32946421	      1.17167359	      0.12919495	    -16.21606828	    -10.27164391	     -2.20628950	     14.08443846	      0.24581982	     13.57436815	     -0.67335843	     -7.49999987	     28.07212937	      9.02299236	     -7.01174382	     17.63495856	      0.30778809	     -8.15686640	    -16.77732716	     -7.49999987	     -3.82574082	    -10.63802733	      5.95933805	      1.89271383	     -6.89503580	      2.41228398	     43.19153470	     80.94574473	     -4.67113370	    -10.46998376	     -3.36026247	     23.87467808	     78.06024686
      3.49166670	     -2.75913416	      8.77781964	     -7.41092180	     -3.31573785	      1.17013917	      0.12839858	    -15.51740051	    -10.71747194	     -1.81565227	     15.70868285	      0.27416824	     14.46812679	     -0.85927124	     -7.49999987	     28.45762652	      9.23708547	     -7.47968080	     18.33399490	      0.31998858	     -6.58971265	    -15.60768115	     -7.49999987	     -2.99665723	    -10.83504121	      6.28285763	      1.37571631	     -6.75201216	      1.94943154	     42.51880632	     81.07719683	     -5.13165341	    -10.43849121	     -3.76434295	     23.80632051	     78.00580283
      3.50000000	     -2.69485089	      8.80208924	     -7.54924031	     -3.30231970	      1.17103549	      0.12748408	    -15.07031333	    -10.94179132	     -1.19673597	     17.53918606	      0.30611654	     15.27237781	     -1.70301668	     -7.49999987	     28.21509781	      9.48568966	     -7.38231704	     18.67174160	      0.32588337	     -5.17723166	    -14.83014922	     -7.49999987	     -2.68090573	    -10.85970754	      6.42132825	      0.91747850	     -6.70106130	      1.61954343	     42.01048550	     81.18461286	     -5.46777775	    -10.37598543	     -4.06360339	     23.64845918	     77.97580842
      3.50833330	     -2.67015426	      8.65681571	     -7.61678551	     -3.28921907	      1.17126794	      0.12648164	    -14.34526117	    -10.89838639	     -0.36066708	     19.60661991	      0.34220007	     16.08479389	     -2.95822749	     -7.49999987	     27.86397689	      9.61248699	     -7.10426893	     18.84995113	      0.32899371	     -3.44638830	    -13.67663995	     -7.49999987	     -2.22043752	    -10.69864233	      6.56245593	      0.45013655	     -6.72626276	      1.58572240	     41.21280983	     79.91101163	     -5.72670829	    -10.24548713	     -4.21807178	     23.19408121	     76.57348942
      3.51666670	     -2.59985142	      8.32199343	     -7.66580561	     -3.27691091	      1.17274049	      0.12539041	    -13.39642458	    -10.54628171	      0.79971666	     21.92646101	      0.38268894	     16.50996227	     -4.84711473	     -7.49999987	     27.26040762	      9.60821047	     -6.49370785	     18.75986554	      0.32742142	     -2.06879733	    -12.70720130	     -7.49999987	     -1.85702111	    -10.30884949	      6.55888627	      0.14084395	     -6.76038492	      1.67919396	     40.23943038	     78.22885143	     -5.99320290	    -10.06120447	     -4.33482588	     22.81665318	     74.99376238
      3.52500000	     -2.34949138	      7.89136988	     -7.76447934	     -3.26530816	      1.17577943	      0.12426373	    -12.39337933	    -10.08393464	      1.88438699	     24.57247015	      0.42887051	     16.54941551	     -6.43881506	     -7.49999987	     26.24275499	      9.56649743	     -5.65351967	     18.40552076	      0.32123694	     -1.34320518	    -12.32407074	     -7.49999987	     -1.76254394	     -9.85296802	      6.56055370	     -0.16967151	     -6.92012561	      1.85419531	     39.47317599	     77.64493168	     -6.28300669	     -9.94440834	     -4.22994243	     22.74890878	     74.45082864
      3.53333330	     -2.17207306	      7.39877855	     -7.89953433	     -3.25451524	      1.17896504	      0.12328360	    -11.10534939	     -9.44204530	      3.11443189	     27.49077785	      0.47980459	     15.85056473	     -8.50948167	     -7.49999987	     25.21180643	      9.38463986	     -4.94848242	     18.07591826	      0.31548429	     -0.75520583	    -11.88561442	     -7.49999987	     -1.61523052	     -9.31051491	      6.56197439	     -0.36196472	     -6.89273397	      0.94457515	     38.40534569	     81.79184178	     -6.44359225	     -9.65829599	     -5.51112945	     22.49982115	     78.13995656
      3.54166670	     -2.02406675	      6.92981739	     -8.04750483	     -3.24442771	      1.18291104	      0.12242476	     -9.70445675	     -8.78378594	      4.10632247	     30.54506082	      0.53311188	     14.58518290	    -10.39021512	     -7.49999987	     24.15295804	      9.17628720	     -4.36218046	     17.80123019	      0.31069008	     -0.30453389	    -11.56797659	     -7.49999987	     -1.44428011	     -8.78349631	      6.52929954	     -0.42650049	     -6.98574026	      1.19828735	     37.27715130	     79.76279086	     -6.44391426	     -9.44580535	     -5.58716257	     21.96035768	     76.44980319
      3.55000000	     -1.80511168	      6.55928046	     -8.25036356	     -3.23505718	      1.18554990	      0.12171938	     -8.34699908	     -8.22786201	      4.89518226	     33.64415470	      0.58720127	     12.84097422	    -12.12311897	     -7.49999987	     23.01833213	      9.04150583	     -3.84430313	     17.57797534	      0.30679355	     -0.21365185	    -11.86853627	     -7.49999987	     -1.49817292	     -8.40319509	      6.42544533	     -0.39112795	     -7.08783279	      1.26282049	     36.30424256	     81.27520695	     -6.52301274	     -9.27265178	     -6.29484021	     21.95102658	     78.61597013
      3.55833330	     -1.55519241	      6.28312998	     -8.48022763	     -3.22624718	      1.18860773	      0.12108874	     -7.05705660	     -7.78984112	      5.42079224	     36.60857503	      0.63894017	     10.92377653	    -13.43926950	     -7.49999987	     21.90006609	      8.94322255	     -3.61659415	     17.42578613	      0.30413734	     -0.12198696	    -12.12203424	     -7.49999987	     -1.75817098	     -8.14516536	      6.36046577	     -0.42875411	     -7.17599840	      1.15849612	     35.73095653	     81.23083666	     -6.40418552	     -9.15940076	     -6.33470576	     21.90462946	     78.62095993
      3.56666670	     -1.35580150	      6.03976345	     -8.63777117	     -3.21756786	      1.19165546	      0.12041515	     -5.82716755	     -7.40847354	      5.59368130	     39.24923427	      0.68502837	      8.64594470	    -14.51785578	     -7.49999987	     20.91890686	      8.85644652	     -3.46695495	     17.36084497	      0.30300391	     -0.02990004	    -12.37311131	     -7.49999987	     -1.99432036	     -7.91517856	      6.21279840	     -0.44848719	     -7.20978453	      1.07162077	     35.21801099	     81.18843206	     -6.25375732	     -9.11514216	     -6.36626709	     21.86285471	     78.62527360
      3.57500000	     -1.46372900	      5.74485532	     -8.73247416	     -3.20868480	      1.19424100	      0.11979940	     -4.33664639	     -6.80154528	      5.91135049	     41.56619993	      0.72546705	      5.41550193	    -16.72089699	     -7.49999987	     20.30131847	      8.63715337	     -3.42281408	     17.29353753	      0.30182917	      0.19676105	    -12.41456688	     -7.49999987	     -1.81977617	     -7.57147784	      6.03112446	     -0.36705829	     -7.20635791	      1.16497397	     34.06236105	     79.44282219	     -6.10912570	     -9.01234642	     -6.31300720	     21.62606102	     77.20154203
